<svg width="285" height="50" viewBox="0 0 285 50" fill="none" xmlns="http://www.w3.org/2000/svg">
<path fill-rule="evenodd" clip-rule="evenodd" d="M3.29506 3.29506C-2.68221e-07 6.59009 0 11.8934 0 22.5C0 33.1065 -2.68221e-07 38.41 3.29506 41.7049C6.59009 45 11.8934 45 22.5 45C33.1065 45 38.41 45 41.7049 41.7049C45 38.41 45 33.1065 45 22.5C45 11.8934 45 6.59009 41.7049 3.29506C38.41 -2.68221e-07 33.1065 0 22.5 0C11.8934 0 6.59009 -2.68221e-07 3.29506 3.29506ZM35.0465 19.0802C35.6429 18.3643 35.5462 17.3003 34.8302 16.7036C34.1143 16.107 33.0502 16.2037 32.4535 16.9197L28.4105 21.7712C27.5764 22.7725 27.0639 23.3809 26.642 23.762C26.4463 23.9387 26.3302 24.0093 26.2744 24.0361C26.2631 24.0417 26.255 24.0448 26.2501 24.0469C26.2501 24.0469 26.2404 24.0431 26.2327 24.0395L26.2255 24.0361C26.17 24.0093 26.0539 23.9387 25.8581 23.762C25.436 23.3809 24.9237 22.7725 24.0894 21.7712L23.4315 20.9817C22.6924 20.0947 22.0261 19.2951 21.4038 18.733C20.7268 18.1217 19.8738 17.5771 18.7499 17.5771C17.6261 17.5771 16.7733 18.1217 16.0961 18.733C15.4738 19.2951 14.8075 20.0948 14.0685 20.9819L9.95362 25.9198C9.35699 26.6357 9.45371 27.6997 10.1697 28.2964C10.8857 28.8929 11.9497 28.7962 12.5464 28.0802L16.5894 23.2288C17.4237 22.2275 17.936 21.6191 18.358 21.238C18.5537 21.0613 18.6698 20.9907 18.7256 20.9639C18.7315 20.961 18.7407 20.957 18.7407 20.957L18.7499 20.9531C18.7551 20.9552 18.7632 20.9583 18.7745 20.9639C18.83 20.9907 18.9461 21.0613 19.1419 21.238C19.564 21.6191 20.0763 22.2275 20.9106 23.2288L21.5685 24.0183C22.3076 24.9053 22.9739 25.7049 23.5962 26.267C24.2732 26.8783 25.1262 27.423 26.2501 27.423C27.374 27.423 28.2267 26.8783 28.9039 26.267C29.5263 25.7049 30.1925 24.9053 30.9314 24.0183L35.0465 19.0802Z" fill="#FE7743"/>
<path d="M63.44 37L58.768 28.52H57.456V37H51.984V14.536H61.168C62.9387 14.536 64.4427 14.8453 65.68 15.464C66.9387 16.0827 67.8773 16.936 68.496 18.024C69.1147 19.0907 69.424 20.2853 69.424 21.608C69.424 23.1013 68.9973 24.4347 68.144 25.608C67.312 26.7813 66.0747 27.6133 64.432 28.104L69.616 37H63.44ZM57.456 24.648H60.848C61.8507 24.648 62.5973 24.4027 63.088 23.912C63.6 23.4213 63.856 22.728 63.856 21.832C63.856 20.9787 63.6 20.3067 63.088 19.816C62.5973 19.3253 61.8507 19.08 60.848 19.08H57.456V24.648ZM71.771 28.04C71.771 26.2053 72.1123 24.5947 72.795 23.208C73.499 21.8213 74.4483 20.7547 75.643 20.008C76.8377 19.2613 78.171 18.888 79.643 18.888C80.9017 18.888 82.0003 19.144 82.939 19.656C83.899 20.168 84.635 20.84 85.147 21.672V19.144H90.619V37H85.147V34.472C84.6137 35.304 83.867 35.976 82.907 36.488C81.9683 37 80.8697 37.256 79.611 37.256C78.1603 37.256 76.8377 36.8827 75.643 36.136C74.4483 35.368 73.499 34.2907 72.795 32.904C72.1123 31.496 71.771 29.8747 71.771 28.04ZM85.147 28.072C85.147 26.7067 84.763 25.6293 83.995 24.84C83.2483 24.0507 82.331 23.656 81.243 23.656C80.155 23.656 79.227 24.0507 78.459 24.84C77.7123 25.608 77.339 26.6747 77.339 28.04C77.339 29.4053 77.7123 30.4933 78.459 31.304C79.227 32.0933 80.155 32.488 81.243 32.488C82.331 32.488 83.2483 32.0933 83.995 31.304C84.763 30.5147 85.147 29.4373 85.147 28.072ZM105.458 18.952C107.548 18.952 109.212 19.6347 110.45 21C111.708 22.344 112.338 24.2 112.338 26.568V37H106.898V27.304C106.898 26.1093 106.588 25.1813 105.97 24.52C105.351 23.8587 104.519 23.528 103.474 23.528C102.428 23.528 101.596 23.8587 100.978 24.52C100.359 25.1813 100.05 26.1093 100.05 27.304V37H94.5778V19.144H100.05V21.512C100.604 20.7227 101.351 20.104 102.29 19.656C103.228 19.1867 104.284 18.952 105.458 18.952ZM127.052 37L121.612 29.512V37H116.14V13.32H121.612V26.408L127.02 19.144H133.772L126.348 28.104L133.836 37H127.052ZM152.753 27.784C152.753 28.296 152.722 28.8293 152.658 29.384H140.274C140.359 30.4933 140.711 31.3467 141.33 31.944C141.97 32.52 142.748 32.808 143.666 32.808C145.031 32.808 145.98 32.232 146.514 31.08H152.338C152.039 32.2533 151.495 33.3093 150.706 34.248C149.938 35.1867 148.967 35.9227 147.794 36.456C146.62 36.9893 145.308 37.256 143.858 37.256C142.108 37.256 140.551 36.8827 139.186 36.136C137.82 35.3893 136.754 34.3227 135.986 32.936C135.218 31.5493 134.834 29.928 134.834 28.072C134.834 26.216 135.207 24.5947 135.954 23.208C136.722 21.8213 137.788 20.7547 139.154 20.008C140.519 19.2613 142.087 18.888 143.858 18.888C145.586 18.888 147.122 19.2507 148.466 19.976C149.81 20.7013 150.855 21.736 151.602 23.08C152.37 24.424 152.753 25.992 152.753 27.784ZM147.154 26.344C147.154 25.4053 146.834 24.6587 146.194 24.104C145.554 23.5493 144.754 23.272 143.794 23.272C142.876 23.272 142.098 23.5387 141.458 24.072C140.839 24.6053 140.455 25.3627 140.306 26.344H147.154ZM154.552 28.04C154.552 26.2053 154.894 24.5947 155.576 23.208C156.28 21.8213 157.23 20.7547 158.424 20.008C159.619 19.2613 160.952 18.888 162.424 18.888C163.598 18.888 164.664 19.1333 165.624 19.624C166.606 20.1147 167.374 20.776 167.928 21.608V13.32H173.4V37H167.928V34.44C167.416 35.2933 166.68 35.976 165.72 36.488C164.782 37 163.683 37.256 162.424 37.256C160.952 37.256 159.619 36.8827 158.424 36.136C157.23 35.368 156.28 34.2907 155.576 32.904C154.894 31.496 154.552 29.8747 154.552 28.04ZM167.928 28.072C167.928 26.7067 167.544 25.6293 166.776 24.84C166.03 24.0507 165.112 23.656 164.024 23.656C162.936 23.656 162.008 24.0507 161.24 24.84C160.494 25.608 160.12 26.6747 160.12 28.04C160.12 29.4053 160.494 30.4933 161.24 31.304C162.008 32.0933 162.936 32.488 164.024 32.488C165.112 32.488 166.03 32.0933 166.776 31.304C167.544 30.5147 167.928 29.4373 167.928 28.072Z" fill="#273F4F"/>
<path d="M195.104 21.768C195.104 23.0693 194.805 24.264 194.208 25.352C193.611 26.4187 192.693 27.2827 191.456 27.944C190.219 28.6053 188.683 28.936 186.848 28.936H183.456V37H177.984V14.536H186.848C188.64 14.536 190.155 14.8453 191.392 15.464C192.629 16.0827 193.557 16.936 194.176 18.024C194.795 19.112 195.104 20.36 195.104 21.768ZM186.432 24.584C187.477 24.584 188.256 24.3387 188.768 23.848C189.28 23.3573 189.536 22.664 189.536 21.768C189.536 20.872 189.28 20.1787 188.768 19.688C188.256 19.1973 187.477 18.952 186.432 18.952H183.456V24.584H186.432ZM203.425 13.32V37H197.953V13.32H203.425ZM206.302 28.04C206.302 26.2053 206.644 24.5947 207.326 23.208C208.03 21.8213 208.98 20.7547 210.174 20.008C211.369 19.2613 212.702 18.888 214.174 18.888C215.433 18.888 216.532 19.144 217.47 19.656C218.43 20.168 219.166 20.84 219.678 21.672V19.144H225.15V37H219.678V34.472C219.145 35.304 218.398 35.976 217.438 36.488C216.5 37 215.401 37.256 214.142 37.256C212.692 37.256 211.369 36.8827 210.174 36.136C208.98 35.368 208.03 34.2907 207.326 32.904C206.644 31.496 206.302 29.8747 206.302 28.04ZM219.678 28.072C219.678 26.7067 219.294 25.6293 218.526 24.84C217.78 24.0507 216.862 23.656 215.774 23.656C214.686 23.656 213.758 24.0507 212.99 24.84C212.244 25.608 211.87 26.6747 211.87 28.04C211.87 29.4053 212.244 30.4933 212.99 31.304C213.758 32.0933 214.686 32.488 215.774 32.488C216.862 32.488 217.78 32.0933 218.526 31.304C219.294 30.5147 219.678 29.4373 219.678 28.072ZM228.021 28.072C228.021 26.216 228.394 24.5947 229.141 23.208C229.909 21.8213 230.965 20.7547 232.309 20.008C233.674 19.2613 235.232 18.888 236.981 18.888C239.221 18.888 241.088 19.4747 242.581 20.648C244.096 21.8213 245.088 23.4747 245.557 25.608H239.733C239.242 24.2427 238.293 23.56 236.885 23.56C235.882 23.56 235.082 23.9547 234.485 24.744C233.888 25.512 233.589 26.6213 233.589 28.072C233.589 29.5227 233.888 30.6427 234.485 31.432C235.082 32.2 235.882 32.584 236.885 32.584C238.293 32.584 239.242 31.9013 239.733 30.536H245.557C245.088 32.6267 244.096 34.2693 242.581 35.464C241.066 36.6587 239.2 37.256 236.981 37.256C235.232 37.256 233.674 36.8827 232.309 36.136C230.965 35.3893 229.909 34.3227 229.141 32.936C228.394 31.5493 228.021 29.928 228.021 28.072ZM265.316 27.784C265.316 28.296 265.284 28.8293 265.22 29.384H252.836C252.921 30.4933 253.273 31.3467 253.892 31.944C254.532 32.52 255.311 32.808 256.228 32.808C257.593 32.808 258.543 32.232 259.076 31.08H264.9C264.601 32.2533 264.057 33.3093 263.268 34.248C262.5 35.1867 261.529 35.9227 260.356 36.456C259.183 36.9893 257.871 37.256 256.42 37.256C254.671 37.256 253.113 36.8827 251.748 36.136C250.383 35.3893 249.316 34.3227 248.548 32.936C247.78 31.5493 247.396 29.928 247.396 28.072C247.396 26.216 247.769 24.5947 248.516 23.208C249.284 21.8213 250.351 20.7547 251.716 20.008C253.081 19.2613 254.649 18.888 256.42 18.888C258.148 18.888 259.684 19.2507 261.028 19.976C262.372 20.7013 263.417 21.736 264.164 23.08C264.932 24.424 265.316 25.992 265.316 27.784ZM259.716 26.344C259.716 25.4053 259.396 24.6587 258.756 24.104C258.116 23.5493 257.316 23.272 256.356 23.272C255.439 23.272 254.66 23.5387 254.02 24.072C253.401 24.6053 253.017 25.3627 252.868 26.344H259.716ZM275.467 37.256C273.909 37.256 272.523 36.9893 271.307 36.456C270.091 35.9227 269.131 35.1973 268.427 34.28C267.723 33.3413 267.328 32.296 267.243 31.144H272.651C272.715 31.7627 273.003 32.264 273.515 32.648C274.027 33.032 274.656 33.224 275.403 33.224C276.085 33.224 276.608 33.096 276.971 32.84C277.355 32.5627 277.547 32.2107 277.547 31.784C277.547 31.272 277.28 30.8987 276.747 30.664C276.213 30.408 275.349 30.1307 274.155 29.832C272.875 29.5333 271.808 29.224 270.955 28.904C270.101 28.5627 269.365 28.04 268.747 27.336C268.128 26.6107 267.819 25.64 267.819 24.424C267.819 23.4 268.096 22.472 268.651 21.64C269.227 20.7867 270.059 20.1147 271.147 19.624C272.256 19.1333 273.568 18.888 275.083 18.888C277.323 18.888 279.083 19.4427 280.363 20.552C281.664 21.6613 282.411 23.1333 282.603 24.968H277.547C277.461 24.3493 277.184 23.8587 276.715 23.496C276.267 23.1333 275.669 22.952 274.923 22.952C274.283 22.952 273.792 23.08 273.451 23.336C273.109 23.5707 272.939 23.9013 272.939 24.328C272.939 24.84 273.205 25.224 273.739 25.48C274.293 25.736 275.147 25.992 276.299 26.248C277.621 26.5893 278.699 26.9307 279.531 27.272C280.363 27.592 281.088 28.1253 281.707 28.872C282.347 29.5973 282.677 30.5787 282.699 31.816C282.699 32.8613 282.4 33.8 281.803 34.632C281.227 35.4427 280.384 36.0827 279.275 36.552C278.187 37.0213 276.917 37.256 275.467 37.256Z" fill="#FE7743"/>
</svg>
